<?xml version="1.0" encoding="UTF-8"?>
<svg xmlns="http://www.w3.org/2000/svg" xmlns:xlink="http://www.w3.org/1999/xlink" width="96mm" height="56mm" viewBox="0 0 96 56" role="img" aria-label="Bahia Tecnologia — Cartão de Visita Frente (Dark)">
  <defs>
    <linearGradient id="bt-brand" x1="0" y1="0" x2="1" y2="1">
      <stop offset="0%"   stop-color="#2E8BE6"/>
      <stop offset="55%"  stop-color="#1FB6A8"/>
      <stop offset="100%" stop-color="#25D366"/>
    </linearGradient>
    <linearGradient id="bt-icon-grad" x1="0" y1="0" x2="1" y2="1">
      <stop offset="0%"   stop-color="#2E8BE6"/>
      <stop offset="55%"  stop-color="#1FB6A8"/>
      <stop offset="100%" stop-color="#25D366"/>
    </linearGradient>
    <linearGradient id="bt-bubble-grad" x1="0" y1="0" x2="1" y2="1"><stop offset="0%" stop-color="#3FA9FF"/><stop offset="55%" stop-color="#1FB6A8"/><stop offset="100%" stop-color="#25D366"/></linearGradient>
    <radialGradient id="bt-glow" cx="78%" cy="72%" r="65%"><stop offset="0%" stop-color="#1FB6A8" stop-opacity="0.16"/><stop offset="100%" stop-color="#0A1628" stop-opacity="0"/></radialGradient>
    <clipPath id="bt-artboard"><rect width="96" height="56"/></clipPath>
  </defs>

  <rect width="96" height="56" fill="#0A1628"/>
  <rect width="96" height="56" fill="url(#bt-glow)"/>

  <g clip-path="url(#bt-artboard)">
    <g opacity="0.95" transform="translate(58 -2) scale(1.55)">
      <path d="M10 6 h18 a14 14 0 0 1 0 28 h-6 l-6 6 v-6 h-6 a4 4 0 0 1 -4 -4 V10 a4 4 0 0 1 4 -4 z" fill="none" stroke="url(#bt-bubble-grad)" stroke-width="0.387" stroke-linejoin="round"/>
      <circle cx="15" cy="20" r="1.6" fill="none" stroke="url(#bt-bubble-grad)" stroke-width="0.387"/>
      <circle cx="20" cy="20" r="1.6" fill="none" stroke="url(#bt-bubble-grad)" stroke-width="0.387"/>
      <circle cx="25" cy="20" r="1.6" fill="none" stroke="url(#bt-bubble-grad)" stroke-width="0.387"/>
    </g>
  </g>

  <g transform="translate(6 15) scale(0.29167)">
      <path fill="url(#bt-icon-grad)" fill-rule="evenodd"
        d="M10 6 h18 a14 14 0 0 1 0 28 h-6 l-6 6 v-6 h-6 a4 4 0 0 1 -4 -4 V10 a4 4 0 0 1 4 -4 z
           M22 12 h6 a6 6 0 0 1 0 12 h-6 z
           M22 26 h7 a6 6 0 0 1 0 12 h-7 z"/>
      <g fill="#FFFFFF"><circle cx="15" cy="20" r="1.6"/><circle cx="20" cy="20" r="1.6"/><circle cx="25" cy="20" r="1.6"/></g>
    </g>

  <text x="23" y="26" font-family="Sora, 'Plus Jakarta Sans', ui-sans-serif, sans-serif" font-weight="700" font-size="9.5" fill="#FFFFFF" letter-spacing="-0.15">Bahia</text>
    <text x="23" y="32.6" font-family="Sora, 'Plus Jakarta Sans', ui-sans-serif, sans-serif" font-weight="500" font-size="5.2" fill="#1FB6A8" letter-spacing="0.05">Tecnologia</text>

  <text x="6" y="42" font-family="Inter, ui-sans-serif, system-ui, sans-serif" font-weight="600" font-size="2.55" letter-spacing="1.0">
      <tspan fill="#B8C2D1">AUTOMAÇÕES&#160;PARA&#160;</tspan><tspan fill="#1FB6A8">WHATSAPP</tspan>
    </text>
    <text x="6" y="46.5" font-family="Inter, ui-sans-serif, system-ui, sans-serif" font-weight="600" font-size="2.55" letter-spacing="1.0">
      <tspan fill="#B8C2D1">E&#160;</tspan><tspan fill="#1FB6A8">INTELIGÊNCIA&#160;ARTIFICIAL</tspan>
    </text>

  <g id="guides">
    <rect x="3" y="3" width="90" height="50" fill="none" stroke="#FF0000" stroke-width="0.25" stroke-dasharray="1,0.5" opacity="0.85"/>
    <rect x="6" y="6" width="84" height="44" fill="none" stroke="#1F8BFF" stroke-width="0.25" stroke-dasharray="0.5,0.5" opacity="0.85"/>
  </g>
</svg>
