<?xml version="1.0" encoding="UTF-8"?>
<svg xmlns="http://www.w3.org/2000/svg" xmlns:xlink="http://www.w3.org/1999/xlink" width="96mm" height="56mm" viewBox="0 0 96 56" role="img" aria-label="Bahia Tecnologia — Cartão de Visita Verso (Dark)">
  <defs>
    <linearGradient id="bt-brand" x1="0" y1="0" x2="1" y2="1">
      <stop offset="0%"   stop-color="#2E8BE6"/>
      <stop offset="55%"  stop-color="#1FB6A8"/>
      <stop offset="100%" stop-color="#25D366"/>
    </linearGradient>
    <linearGradient id="bt-icon-grad" x1="0" y1="0" x2="1" y2="1">
      <stop offset="0%"   stop-color="#2E8BE6"/>
      <stop offset="55%"  stop-color="#1FB6A8"/>
      <stop offset="100%" stop-color="#25D366"/>
    </linearGradient>
    <clipPath id="bt-artboard"><rect width="96" height="56"/></clipPath>
  </defs>

  <!-- Left cream background (full bleed) -->
  <rect width="96" height="56" fill="#FAFBFC"/>

  <!-- Right panel (S-curve boundary) -->
  <g clip-path="url(#bt-artboard)">
    <path d="M 96 0 L 56 0 C 56 16, 66 22, 62 32 C 58 42, 54 50, 54 56 L 96 56 Z" fill="#0E1E36"/>
    <g stroke="#1FB6A8" stroke-width="0.18" fill="none" opacity="0.55" stroke-linecap="round" stroke-linejoin="round">
      <path d="M 88 16 L 88 22 L 92 22 L 92 28"/>
      <path d="M 58 38 L 58 42 L 62 42 L 62 49"/>
      <path d="M 84 46 L 84 50 L 90 50"/>
      <path d="M 90 32 L 94 32 L 94 38"/>
      <circle cx="88" cy="16" r="0.5" fill="#1FB6A8"/>
      <circle cx="92" cy="28" r="0.5" fill="#1FB6A8"/>
      <circle cx="58" cy="38" r="0.5" fill="#1FB6A8"/>
      <circle cx="62" cy="49" r="0.5" fill="#1FB6A8"/>
      <circle cx="84" cy="46" r="0.5" fill="#1FB6A8"/>
      <circle cx="94" cy="38" r="0.5" fill="#1FB6A8"/>
    </g>
    <g transform="translate(82 5)">
      <rect x="0" y="0" width="9" height="9" rx="2" ry="2" fill="#25D366"/>
      <path fill="#FFFFFF" d="M4.5 1.7 c-1.55 0 -2.8 1.25 -2.8 2.8 0 0.5 0.13 0.97 0.36 1.38 l-0.4 1.45 1.5 -0.4 c0.4 0.22 0.85 0.34 1.34 0.34 1.55 0 2.8 -1.25 2.8 -2.8 0 -1.55 -1.25 -2.77 -2.8 -2.77 z M4.5 7.0 c-0.42 0 -0.83 -0.11 -1.18 -0.32 l-0.85 0.23 0.23 -0.83 c-0.23 -0.37 -0.36 -0.8 -0.36 -1.25 0 -1.28 1.04 -2.32 2.32 -2.32 1.28 0 2.32 1.04 2.32 2.32 0 1.28 -1.04 2.32 -2.32 2.32 z M5.74 5.18 c-0.07 -0.04 -0.4 -0.2 -0.46 -0.22 -0.06 -0.02 -0.11 -0.04 -0.16 0.04 -0.05 0.07 -0.18 0.22 -0.22 0.27 -0.04 0.05 -0.08 0.05 -0.15 0.02 -0.07 -0.04 -0.3 -0.11 -0.57 -0.35 -0.21 -0.19 -0.35 -0.42 -0.39 -0.49 -0.04 -0.07 0 -0.11 0.03 -0.15 0.03 -0.03 0.07 -0.08 0.11 -0.12 0.04 -0.04 0.05 -0.07 0.07 -0.12 0.02 -0.05 0.01 -0.09 0 -0.13 -0.02 -0.04 -0.16 -0.39 -0.22 -0.53 -0.06 -0.14 -0.12 -0.12 -0.16 -0.12 -0.04 0 -0.09 -0.01 -0.13 -0.01 -0.05 0 -0.12 0.02 -0.18 0.09 -0.06 0.07 -0.24 0.23 -0.24 0.56 0 0.33 0.24 0.65 0.27 0.69 0.04 0.05 0.47 0.72 1.13 1.01 0.16 0.07 0.28 0.11 0.38 0.14 0.16 0.05 0.31 0.04 0.42 0.03 0.13 -0.02 0.4 -0.16 0.46 -0.32 0.06 -0.16 0.06 -0.29 0.04 -0.32 -0.02 -0.04 -0.07 -0.06 -0.14 -0.09 z"/>
    </g>
    <rect x="64.8" y="15.8" width="20.4" height="20.4" rx="1" fill="#FFFFFF"/><g id="bt-qr" transform="translate(66 17) scale(0.4390)" fill="#0A1628" shape-rendering="crispEdges"><rect x="0" y="0" width="7" height="1"/><rect x="9" y="0" width="1" height="1"/><rect x="12" y="0" width="1" height="1"/><rect x="14" y="0" width="1" height="1"/><rect x="16" y="0" width="1" height="1"/><rect x="19" y="0" width="1" height="1"/><rect x="21" y="0" width="3" height="1"/><rect x="25" y="0" width="5" height="1"/><rect x="34" y="0" width="7" height="1"/><rect x="0" y="1" width="1" height="1"/><rect x="6" y="1" width="1" height="1"/><rect x="8" y="1" width="3" height="1"/><rect x="13" y="1" width="1" height="1"/><rect x="15" y="1" width="1" height="1"/><rect x="17" y="1" width="1" height="1"/><rect x="19" y="1" width="1" height="1"/><rect x="21" y="1" width="2" height="1"/><rect x="25" y="1" width="2" height="1"/><rect x="29" y="1" width="1" height="1"/><rect x="31" y="1" width="2" height="1"/><rect x="34" y="1" width="1" height="1"/><rect x="40" y="1" width="1" height="1"/><rect x="0" y="2" width="1" height="1"/><rect x="2" y="2" width="3" height="1"/><rect x="6" y="2" width="1" height="1"/><rect x="9" y="2" width="1" height="1"/><rect x="12" y="2" width="1" height="1"/><rect x="15" y="2" width="1" height="1"/><rect x="19" y="2" width="1" height="1"/><rect x="23" y="2" width="2" height="1"/><rect x="26" y="2" width="2" height="1"/><rect x="31" y="2" width="1" height="1"/><rect x="34" y="2" width="1" height="1"/><rect x="36" y="2" width="3" height="1"/><rect x="40" y="2" width="1" height="1"/><rect x="0" y="3" width="1" height="1"/><rect x="2" y="3" width="3" height="1"/><rect x="6" y="3" width="1" height="1"/><rect x="9" y="3" width="3" height="1"/><rect x="18" y="3" width="3" height="1"/><rect x="24" y="3" width="1" height="1"/><rect x="28" y="3" width="3" height="1"/><rect x="34" y="3" width="1" height="1"/><rect x="36" y="3" width="3" height="1"/><rect x="40" y="3" width="1" height="1"/><rect x="0" y="4" width="1" height="1"/><rect x="2" y="4" width="3" height="1"/><rect x="6" y="4" width="1" height="1"/><rect x="9" y="4" width="1" height="1"/><rect x="11" y="4" width="5" height="1"/><rect x="17" y="4" width="1" height="1"/><rect x="21" y="4" width="4" height="1"/><rect x="27" y="4" width="2" height="1"/><rect x="30" y="4" width="1" height="1"/><rect x="34" y="4" width="1" height="1"/><rect x="36" y="4" width="3" height="1"/><rect x="40" y="4" width="1" height="1"/><rect x="0" y="5" width="1" height="1"/><rect x="6" y="5" width="1" height="1"/><rect x="8" y="5" width="3" height="1"/><rect x="12" y="5" width="2" height="1"/><rect x="15" y="5" width="1" height="1"/><rect x="17" y="5" width="2" height="1"/><rect x="20" y="5" width="1" height="1"/><rect x="23" y="5" width="2" height="1"/><rect x="26" y="5" width="1" height="1"/><rect x="29" y="5" width="1" height="1"/><rect x="31" y="5" width="2" height="1"/><rect x="34" y="5" width="1" height="1"/><rect x="40" y="5" width="1" height="1"/><rect x="0" y="6" width="7" height="1"/><rect x="8" y="6" width="1" height="1"/><rect x="10" y="6" width="1" height="1"/><rect x="12" y="6" width="1" height="1"/><rect x="14" y="6" width="1" height="1"/><rect x="16" y="6" width="1" height="1"/><rect x="18" y="6" width="1" height="1"/><rect x="20" y="6" width="1" height="1"/><rect x="22" y="6" width="1" height="1"/><rect x="24" y="6" width="1" height="1"/><rect x="26" y="6" width="1" height="1"/><rect x="28" y="6" width="1" height="1"/><rect x="30" y="6" width="1" height="1"/><rect x="32" y="6" width="1" height="1"/><rect x="34" y="6" width="7" height="1"/><rect x="8" y="7" width="2" height="1"/><rect x="11" y="7" width="1" height="1"/><rect x="13" y="7" width="4" height="1"/><rect x="18" y="7" width="1" height="1"/><rect x="20" y="7" width="1" height="1"/><rect x="22" y="7" width="2" height="1"/><rect x="29" y="7" width="2" height="1"/><rect x="32" y="7" width="1" height="1"/><rect x="4" y="8" width="4" height="1"/><rect x="9" y="8" width="2" height="1"/><rect x="12" y="8" width="2" height="1"/><rect x="15" y="8" width="1" height="1"/><rect x="18" y="8" width="3" height="1"/><rect x="22" y="8" width="1" height="1"/><rect x="24" y="8" width="1" height="1"/><rect x="27" y="8" width="1" height="1"/><rect x="29" y="8" width="1" height="1"/><rect x="34" y="8" width="2" height="1"/><rect x="39" y="8" width="1" height="1"/><rect x="7" y="9" width="1" height="1"/><rect x="18" y="9" width="1" height="1"/><rect x="20" y="9" width="3" height="1"/><rect x="24" y="9" width="2" height="1"/><rect x="27" y="9" width="3" height="1"/><rect x="34" y="9" width="1" height="1"/><rect x="36" y="9" width="2" height="1"/><rect x="40" y="9" width="1" height="1"/><rect x="2" y="10" width="3" height="1"/><rect x="6" y="10" width="1" height="1"/><rect x="9" y="10" width="2" height="1"/><rect x="12" y="10" width="1" height="1"/><rect x="14" y="10" width="2" height="1"/><rect x="17" y="10" width="1" height="1"/><rect x="19" y="10" width="1" height="1"/><rect x="27" y="10" width="2" height="1"/><rect x="30" y="10" width="1" height="1"/><rect x="32" y="10" width="1" height="1"/><rect x="35" y="10" width="2" height="1"/><rect x="39" y="10" width="2" height="1"/><rect x="0" y="11" width="4" height="1"/><rect x="5" y="11" width="1" height="1"/><rect x="7" y="11" width="1" height="1"/><rect x="12" y="11" width="2" height="1"/><rect x="16" y="11" width="2" height="1"/><rect x="19" y="11" width="1" height="1"/><rect x="28" y="11" width="6" height="1"/><rect x="35" y="11" width="1" height="1"/><rect x="37" y="11" width="1" height="1"/><rect x="1" y="12" width="3" height="1"/><rect x="5" y="12" width="4" height="1"/><rect x="14" y="12" width="2" height="1"/><rect x="17" y="12" width="3" height="1"/><rect x="21" y="12" width="1" height="1"/><rect x="24" y="12" width="3" height="1"/><rect x="29" y="12" width="1" height="1"/><rect x="33" y="12" width="2" height="1"/><rect x="39" y="12" width="2" height="1"/><rect x="2" y="13" width="1" height="1"/><rect x="4" y="13" width="1" height="1"/><rect x="8" y="13" width="1" height="1"/><rect x="10" y="13" width="2" height="1"/><rect x="14" y="13" width="1" height="1"/><rect x="17" y="13" width="1" height="1"/><rect x="22" y="13" width="1" height="1"/><rect x="26" y="13" width="1" height="1"/><rect x="28" y="13" width="1" height="1"/><rect x="30" y="13" width="3" height="1"/><rect x="35" y="13" width="3" height="1"/><rect x="40" y="13" width="1" height="1"/><rect x="1" y="14" width="9" height="1"/><rect x="11" y="14" width="1" height="1"/><rect x="13" y="14" width="1" height="1"/><rect x="16" y="14" width="3" height="1"/><rect x="20" y="14" width="3" height="1"/><rect x="24" y="14" width="1" height="1"/><rect x="28" y="14" width="3" height="1"/><rect x="32" y="14" width="3" height="1"/><rect x="37" y="14" width="1" height="1"/><rect x="40" y="14" width="1" height="1"/><rect x="2" y="15" width="2" height="1"/><rect x="5" y="15" width="1" height="1"/><rect x="7" y="15" width="2" height="1"/><rect x="10" y="15" width="1" height="1"/><rect x="15" y="15" width="3" height="1"/><rect x="19" y="15" width="1" height="1"/><rect x="21" y="15" width="2" height="1"/><rect x="25" y="15" width="1" height="1"/><rect x="29" y="15" width="1" height="1"/><rect x="37" y="15" width="1" height="1"/><rect x="0" y="16" width="2" height="1"/><rect x="6" y="16" width="3" height="1"/><rect x="12" y="16" width="1" height="1"/><rect x="15" y="16" width="2" height="1"/><rect x="19" y="16" width="1" height="1"/><rect x="21" y="16" width="4" height="1"/><rect x="27" y="16" width="1" height="1"/><rect x="29" y="16" width="1" height="1"/><rect x="31" y="16" width="1" height="1"/><rect x="35" y="16" width="1" height="1"/><rect x="37" y="16" width="1" height="1"/><rect x="39" y="16" width="2" height="1"/><rect x="2" y="17" width="1" height="1"/><rect x="5" y="17" width="1" height="1"/><rect x="11" y="17" width="2" height="1"/><rect x="14" y="17" width="2" height="1"/><rect x="19" y="17" width="1" height="1"/><rect x="22" y="17" width="1" height="1"/><rect x="24" y="17" width="5" height="1"/><rect x="30" y="17" width="1" height="1"/><rect x="33" y="17" width="4" height="1"/><rect x="40" y="17" width="1" height="1"/><rect x="3" y="18" width="1" height="1"/><rect x="6" y="18" width="2" height="1"/><rect x="9" y="18" width="5" height="1"/><rect x="15" y="18" width="1" height="1"/><rect x="17" y="18" width="2" height="1"/><rect x="21" y="18" width="1" height="1"/><rect x="23" y="18" width="1" height="1"/><rect x="25" y="18" width="1" height="1"/><rect x="27" y="18" width="1" height="1"/><rect x="29" y="18" width="1" height="1"/><rect x="32" y="18" width="4" height="1"/><rect x="37" y="18" width="1" height="1"/><rect x="40" y="18" width="1" height="1"/><rect x="0" y="19" width="6" height="1"/><rect x="8" y="19" width="1" height="1"/><rect x="16" y="19" width="1" height="1"/><rect x="20" y="19" width="2" height="1"/><rect x="24" y="19" width="2" height="1"/><rect x="29" y="19" width="4" height="1"/><rect x="35" y="19" width="1" height="1"/><rect x="39" y="19" width="2" height="1"/><rect x="0" y="20" width="1" height="1"/><rect x="6" y="20" width="1" height="1"/><rect x="9" y="20" width="1" height="1"/><rect x="11" y="20" width="1" height="1"/><rect x="13" y="20" width="1" height="1"/><rect x="17" y="20" width="3" height="1"/><rect x="27" y="20" width="1" height="1"/><rect x="30" y="20" width="1" height="1"/><rect x="32" y="20" width="2" height="1"/><rect x="35" y="20" width="3" height="1"/><rect x="40" y="20" width="1" height="1"/><rect x="2" y="21" width="2" height="1"/><rect x="5" y="21" width="1" height="1"/><rect x="7" y="21" width="2" height="1"/><rect x="10" y="21" width="2" height="1"/><rect x="20" y="21" width="1" height="1"/><rect x="23" y="21" width="1" height="1"/><rect x="25" y="21" width="3" height="1"/><rect x="34" y="21" width="1" height="1"/><rect x="36" y="21" width="1" height="1"/><rect x="40" y="21" width="1" height="1"/><rect x="0" y="22" width="1" height="1"/><rect x="2" y="22" width="1" height="1"/><rect x="5" y="22" width="3" height="1"/><rect x="9" y="22" width="2" height="1"/><rect x="12" y="22" width="1" height="1"/><rect x="16" y="22" width="1" height="1"/><rect x="19" y="22" width="3" height="1"/><rect x="23" y="22" width="1" height="1"/><rect x="25" y="22" width="3" height="1"/><rect x="30" y="22" width="1" height="1"/><rect x="32" y="22" width="1" height="1"/><rect x="37" y="22" width="2" height="1"/><rect x="40" y="22" width="1" height="1"/><rect x="0" y="23" width="3" height="1"/><rect x="4" y="23" width="2" height="1"/><rect x="7" y="23" width="1" height="1"/><rect x="10" y="23" width="1" height="1"/><rect x="15" y="23" width="2" height="1"/><rect x="18" y="23" width="1" height="1"/><rect x="20" y="23" width="2" height="1"/><rect x="26" y="23" width="7" height="1"/><rect x="35" y="23" width="1" height="1"/><rect x="39" y="23" width="1" height="1"/><rect x="0" y="24" width="1" height="1"/><rect x="4" y="24" width="1" height="1"/><rect x="6" y="24" width="1" height="1"/><rect x="11" y="24" width="2" height="1"/><rect x="15" y="24" width="1" height="1"/><rect x="17" y="24" width="2" height="1"/><rect x="20" y="24" width="3" height="1"/><rect x="24" y="24" width="1" height="1"/><rect x="26" y="24" width="1" height="1"/><rect x="29" y="24" width="1" height="1"/><rect x="32" y="24" width="2" height="1"/><rect x="35" y="24" width="1" height="1"/><rect x="37" y="24" width="4" height="1"/><rect x="0" y="25" width="2" height="1"/><rect x="5" y="25" width="1" height="1"/><rect x="7" y="25" width="6" height="1"/><rect x="17" y="25" width="1" height="1"/><rect x="20" y="25" width="3" height="1"/><rect x="24" y="25" width="2" height="1"/><rect x="27" y="25" width="2" height="1"/><rect x="32" y="25" width="5" height="1"/><rect x="38" y="25" width="1" height="1"/><rect x="40" y="25" width="1" height="1"/><rect x="0" y="26" width="1" height="1"/><rect x="3" y="26" width="4" height="1"/><rect x="8" y="26" width="1" height="1"/><rect x="10" y="26" width="1" height="1"/><rect x="12" y="26" width="1" height="1"/><rect x="15" y="26" width="3" height="1"/><rect x="21" y="26" width="1" height="1"/><rect x="23" y="26" width="3" height="1"/><rect x="27" y="26" width="2" height="1"/><rect x="30" y="26" width="1" height="1"/><rect x="32" y="26" width="5" height="1"/><rect x="40" y="26" width="1" height="1"/><rect x="1" y="27" width="1" height="1"/><rect x="3" y="27" width="1" height="1"/><rect x="7" y="27" width="3" height="1"/><rect x="11" y="27" width="1" height="1"/><rect x="13" y="27" width="2" height="1"/><rect x="16" y="27" width="1" height="1"/><rect x="19" y="27" width="1" height="1"/><rect x="24" y="27" width="1" height="1"/><rect x="29" y="27" width="4" height="1"/><rect x="34" y="27" width="2" height="1"/><rect x="37" y="27" width="1" height="1"/><rect x="40" y="27" width="1" height="1"/><rect x="1" y="28" width="2" height="1"/><rect x="5" y="28" width="4" height="1"/><rect x="10" y="28" width="1" height="1"/><rect x="12" y="28" width="4" height="1"/><rect x="19" y="28" width="1" height="1"/><rect x="21" y="28" width="1" height="1"/><rect x="23" y="28" width="7" height="1"/><rect x="32" y="28" width="1" height="1"/><rect x="40" y="28" width="1" height="1"/><rect x="0" y="29" width="2" height="1"/><rect x="4" y="29" width="1" height="1"/><rect x="10" y="29" width="1" height="1"/><rect x="12" y="29" width="2" height="1"/><rect x="15" y="29" width="3" height="1"/><rect x="19" y="29" width="3" height="1"/><rect x="24" y="29" width="1" height="1"/><rect x="29" y="29" width="3" height="1"/><rect x="33" y="29" width="1" height="1"/><rect x="35" y="29" width="4" height="1"/><rect x="40" y="29" width="1" height="1"/><rect x="3" y="30" width="6" height="1"/><rect x="10" y="30" width="3" height="1"/><rect x="15" y="30" width="3" height="1"/><rect x="23" y="30" width="1" height="1"/><rect x="25" y="30" width="3" height="1"/><rect x="29" y="30" width="1" height="1"/><rect x="31" y="30" width="1" height="1"/><rect x="33" y="30" width="1" height="1"/><rect x="35" y="30" width="1" height="1"/><rect x="37" y="30" width="1" height="1"/><rect x="40" y="30" width="1" height="1"/><rect x="3" y="31" width="2" height="1"/><rect x="11" y="31" width="3" height="1"/><rect x="15" y="31" width="1" height="1"/><rect x="17" y="31" width="1" height="1"/><rect x="20" y="31" width="1" height="1"/><rect x="22" y="31" width="3" height="1"/><rect x="27" y="31" width="7" height="1"/><rect x="37" y="31" width="1" height="1"/><rect x="0" y="32" width="3" height="1"/><rect x="4" y="32" width="1" height="1"/><rect x="6" y="32" width="2" height="1"/><rect x="10" y="32" width="1" height="1"/><rect x="12" y="32" width="1" height="1"/><rect x="14" y="32" width="3" height="1"/><rect x="22" y="32" width="3" height="1"/><rect x="29" y="32" width="1" height="1"/><rect x="32" y="32" width="5" height="1"/><rect x="8" y="33" width="5" height="1"/><rect x="16" y="33" width="2" height="1"/><rect x="21" y="33" width="1" height="1"/><rect x="26" y="33" width="7" height="1"/><rect x="36" y="33" width="1" height="1"/><rect x="40" y="33" width="1" height="1"/><rect x="0" y="34" width="7" height="1"/><rect x="8" y="34" width="2" height="1"/><rect x="14" y="34" width="1" height="1"/><rect x="19" y="34" width="1" height="1"/><rect x="21" y="34" width="2" height="1"/><rect x="27" y="34" width="2" height="1"/><rect x="30" y="34" width="3" height="1"/><rect x="34" y="34" width="1" height="1"/><rect x="36" y="34" width="1" height="1"/><rect x="38" y="34" width="1" height="1"/><rect x="40" y="34" width="1" height="1"/><rect x="0" y="35" width="1" height="1"/><rect x="6" y="35" width="1" height="1"/><rect x="8" y="35" width="1" height="1"/><rect x="10" y="35" width="1" height="1"/><rect x="12" y="35" width="1" height="1"/><rect x="14" y="35" width="1" height="1"/><rect x="21" y="35" width="4" height="1"/><rect x="26" y="35" width="1" height="1"/><rect x="31" y="35" width="2" height="1"/><rect x="36" y="35" width="2" height="1"/><rect x="40" y="35" width="1" height="1"/><rect x="0" y="36" width="1" height="1"/><rect x="2" y="36" width="3" height="1"/><rect x="6" y="36" width="1" height="1"/><rect x="8" y="36" width="1" height="1"/><rect x="10" y="36" width="1" height="1"/><rect x="12" y="36" width="2" height="1"/><rect x="15" y="36" width="2" height="1"/><rect x="19" y="36" width="4" height="1"/><rect x="24" y="36" width="1" height="1"/><rect x="26" y="36" width="1" height="1"/><rect x="31" y="36" width="7" height="1"/><rect x="0" y="37" width="1" height="1"/><rect x="2" y="37" width="3" height="1"/><rect x="6" y="37" width="1" height="1"/><rect x="9" y="37" width="1" height="1"/><rect x="11" y="37" width="1" height="1"/><rect x="14" y="37" width="2" height="1"/><rect x="17" y="37" width="1" height="1"/><rect x="19" y="37" width="6" height="1"/><rect x="26" y="37" width="3" height="1"/><rect x="30" y="37" width="3" height="1"/><rect x="35" y="37" width="1" height="1"/><rect x="40" y="37" width="1" height="1"/><rect x="0" y="38" width="1" height="1"/><rect x="2" y="38" width="3" height="1"/><rect x="6" y="38" width="1" height="1"/><rect x="10" y="38" width="1" height="1"/><rect x="13" y="38" width="2" height="1"/><rect x="20" y="38" width="2" height="1"/><rect x="23" y="38" width="1" height="1"/><rect x="27" y="38" width="1" height="1"/><rect x="30" y="38" width="1" height="1"/><rect x="33" y="38" width="1" height="1"/><rect x="38" y="38" width="3" height="1"/><rect x="0" y="39" width="1" height="1"/><rect x="6" y="39" width="1" height="1"/><rect x="13" y="39" width="1" height="1"/><rect x="17" y="39" width="1" height="1"/><rect x="19" y="39" width="4" height="1"/><rect x="24" y="39" width="2" height="1"/><rect x="27" y="39" width="4" height="1"/><rect x="32" y="39" width="1" height="1"/><rect x="35" y="39" width="1" height="1"/><rect x="37" y="39" width="4" height="1"/><rect x="0" y="40" width="7" height="1"/><rect x="10" y="40" width="1" height="1"/><rect x="13" y="40" width="1" height="1"/><rect x="16" y="40" width="1" height="1"/><rect x="18" y="40" width="3" height="1"/><rect x="25" y="40" width="3" height="1"/><rect x="29" y="40" width="2" height="1"/><rect x="32" y="40" width="1" height="1"/><rect x="34" y="40" width="6" height="1"/></g>
    <text x="74" y="40.8" text-anchor="middle" font-family="Inter, ui-sans-serif, system-ui, sans-serif" font-weight="600" font-size="2.0" letter-spacing="0.4" fill="#FFFFFF">ESCANEIE E CONHEÇA</text>
    <text x="74" y="44.0" text-anchor="middle" font-family="Inter, ui-sans-serif, system-ui, sans-serif" font-weight="600" font-size="2.0" letter-spacing="0.4">
      <tspan fill="#FFFFFF">NOSSAS&#160;</tspan><tspan fill="#25D366">SOLUÇÕES</tspan>
    </text>
  </g>

  <!-- Left content -->
  <g transform="translate(5 5) scale(0.16667)">
      <path fill="url(#bt-icon-grad)" fill-rule="evenodd"
        d="M10 6 h18 a14 14 0 0 1 0 28 h-6 l-6 6 v-6 h-6 a4 4 0 0 1 -4 -4 V10 a4 4 0 0 1 4 -4 z
           M22 12 h6 a6 6 0 0 1 0 12 h-6 z
           M22 26 h7 a6 6 0 0 1 0 12 h-7 z"/>
      <g fill="#FFFFFF"><circle cx="15" cy="20" r="1.6"/><circle cx="20" cy="20" r="1.6"/><circle cx="25" cy="20" r="1.6"/></g>
    </g>
  <text x="14.5" y="9.2" font-family="Sora, 'Plus Jakarta Sans', ui-sans-serif, sans-serif" font-weight="700" font-size="4.6" fill="#0A1628" letter-spacing="-0.05">Bahia</text>
    <text x="14.5" y="12.6" font-family="Sora, 'Plus Jakarta Sans', ui-sans-serif, sans-serif" font-weight="500" font-size="2.8" fill="#1FB6A8" letter-spacing="0.05">Tecnologia</text>
  <text x="6" y="22.2" font-family="Sora, 'Plus Jakarta Sans', ui-sans-serif, sans-serif" font-weight="700" font-size="4.0" fill="#0A1628" letter-spacing="-0.05">Automatize conversas.</text>
    <text x="6" y="27.2" font-family="Sora, 'Plus Jakarta Sans', ui-sans-serif, sans-serif" font-weight="700" font-size="4.0" letter-spacing="-0.05">
      <tspan fill="#0A1628">Inteligência que </tspan><tspan fill="#25D366">conecta.</tspan>
    </text>
  <line x1="6.5" y1="32" x2="6.5" y2="50.5" stroke="#25D366" stroke-width="0.35"/>
  <circle cx="10.5" cy="34.5" r="1.6" fill="#2E8BE6"/>
    <path transform="translate(0 0.0)" d="M 9.9 33.95 q 0.10 -0.30 0.40 -0.30 h 0.35 q 0.18 0 0.22 0.18 l 0.10 0.40 q 0.03 0.13 -0.07 0.22 l -0.18 0.16 q 0.20 0.40 0.55 0.75 q 0.35 0.35 0.75 0.55 l 0.16 -0.18 q 0.09 -0.10 0.22 -0.07 l 0.40 0.10 q 0.18 0.04 0.18 0.22 v 0.35 q 0 0.30 -0.30 0.40 q -0.10 0.04 -0.22 0.04 q -0.95 0 -1.65 -0.70 q -0.70 -0.70 -0.70 -1.65 q 0 -0.12 0.04 -0.22 z" fill="#FFFFFF"/>
    <text x="14.0" y="35.45" font-family="Inter, ui-sans-serif, system-ui, sans-serif" font-weight="500" font-size="2.0" fill="#2A3447" letter-spacing="0.02">71 98380-3720</text>
    <circle cx="10.5" cy="39.0" r="1.6" fill="#2E8BE6"/>
    <g transform="translate(0 4.5)"><rect x="9.4" y="33.85" width="2.2" height="1.4" rx="0.18" fill="none" stroke="#FFFFFF" stroke-width="0.22"/><path d="M 9.45 33.95 L 10.5 34.7 L 11.55 33.95" fill="none" stroke="#FFFFFF" stroke-width="0.22" stroke-linejoin="round"/></g>
    <text x="14.0" y="39.95" font-family="Inter, ui-sans-serif, system-ui, sans-serif" font-weight="500" font-size="2.0" fill="#2A3447" letter-spacing="0.02">contato@bahiatecnologia.com.br</text>
    <circle cx="10.5" cy="43.5" r="1.6" fill="#2E8BE6"/>
    <g transform="translate(0 9.0)"><circle cx="10.5" cy="34.5" r="1.0" fill="none" stroke="#FFFFFF" stroke-width="0.22"/><line x1="9.5" y1="34.5" x2="11.5" y2="34.5" stroke="#FFFFFF" stroke-width="0.22"/><path d="M 10.5 33.5 q -0.6 1.0 0 2.0 M 10.5 33.5 q 0.6 1.0 0 2.0" fill="none" stroke="#FFFFFF" stroke-width="0.22"/></g>
    <text x="14.0" y="44.45" font-family="Inter, ui-sans-serif, system-ui, sans-serif" font-weight="500" font-size="2.0" fill="#2A3447" letter-spacing="0.02">www.bahiatecnologia.com.br</text>
    <circle cx="10.5" cy="48.0" r="1.6" fill="#2E8BE6"/>
    <g transform="translate(0 13.5)"><path d="M 10.5 33.5 q -1.0 0 -1.0 1.0 q 0 0.9 1.0 1.6 q 1.0 -0.7 1.0 -1.6 q 0 -1.0 -1.0 -1.0 z" fill="#FFFFFF"/><circle cx="10.5" cy="34.5" r="0.32" fill="#2E8BE6"/></g>
    <text x="14.0" y="48.95" font-family="Inter, ui-sans-serif, system-ui, sans-serif" font-weight="500" font-size="2.0" fill="#2A3447" letter-spacing="0.02">Salvador - BA</text>

  <g id="guides" display="none">
    <rect x="3" y="3" width="90" height="50" fill="none" stroke="#FF0000" stroke-width="0.25" stroke-dasharray="1,0.5"/>
    <rect x="6" y="6" width="84" height="44" fill="none" stroke="#00FF00" stroke-width="0.25" stroke-dasharray="0.5,0.5"/>
  </g>
</svg>
