<?xml version="1.0" encoding="UTF-8"?>
<svg xmlns="http://www.w3.org/2000/svg" xmlns:xlink="http://www.w3.org/1999/xlink" width="96mm" height="56mm" viewBox="0 0 96 56" role="img" aria-label="Bahia Tecnologia — Cartão de Visita Frente (Dark)">
  <defs>
    <linearGradient id="bt-brand" x1="0" y1="0" x2="1" y2="1">
      <stop offset="0%"   stop-color="#2E8BE6"/>
      <stop offset="55%"  stop-color="#1FB6A8"/>
      <stop offset="100%" stop-color="#25D366"/>
    </linearGradient>
    <linearGradient id="bt-bubble-grad" x1="0" y1="0" x2="1" y2="1">
      <stop offset="0%" stop-color="#3FA9FF"/>
      <stop offset="55%" stop-color="#1FB6A8"/>
      <stop offset="100%" stop-color="#25D366"/>
    </linearGradient>
    <linearGradient id="bt-sep" x1="0" y1="0" x2="0" y2="1">
      <stop offset="0%" stop-color="#3FA9FF" stop-opacity="0"/>
      <stop offset="20%" stop-color="#3FA9FF" stop-opacity="0.9"/>
      <stop offset="55%" stop-color="#1FB6A8" stop-opacity="0.9"/>
      <stop offset="80%" stop-color="#3FA9FF" stop-opacity="0.9"/>
      <stop offset="100%" stop-color="#3FA9FF" stop-opacity="0"/>
    </linearGradient>
    <linearGradient id="bt-icon-stroke" x1="0" y1="0" x2="1" y2="1">
      <stop offset="0%" stop-color="#3FA9FF"/>
      <stop offset="100%" stop-color="#1FB6A8"/>
    </linearGradient>
    <clipPath id="bt-artboard"><rect width="96" height="56"/></clipPath>
    <radialGradient id="bt-glow" cx="78%" cy="72%" r="65%"><stop offset="0%" stop-color="#1FB6A8" stop-opacity="0.10"/><stop offset="100%" stop-color="#0A1628" stop-opacity="0"/></radialGradient>
  </defs>

  <rect width="96" height="56" fill="#0A1628"/>
  <rect width="96" height="56" fill="url(#bt-glow)"/>

  <!-- Logo -->
  <g transform="translate(6.5 13.0) scale(0.3043)"><path fill="url(#bt-bubble-grad)" fill-rule="evenodd" d="M10 6 h18 a14 14 0 0 1 0 28 h-6 l-6 6 v-6 h-6 a4 4 0 0 1 -4 -4 V10 a4 4 0 0 1 4 -4 z M22 12 h6 a6 6 0 0 1 0 12 h-6 z M22 26 h7 a6 6 0 0 1 0 12 h-7 z"/><g fill="#FFFFFF"><circle cx="15" cy="20" r="1.6"/><circle cx="20" cy="20" r="1.6"/><circle cx="25" cy="20" r="1.6"/></g></g>

  <!-- Wordmark -->
  <text x="19.06" y="22.2" font-family="Sora, 'Plus Jakarta Sans', ui-sans-serif, sans-serif" font-weight="700" font-size="8.4" fill="#FFFFFF" letter-spacing="-0.15">Bahia</text>
  <text x="19.06" y="28.7" font-family="Sora, 'Plus Jakarta Sans', ui-sans-serif, sans-serif" font-weight="500" font-size="5.0" fill="#1FB6A8" letter-spacing="0.05">Tecnologia</text>

  <!-- Tagline -->
  <text x="6.0" y="41.6" font-family="Inter, ui-sans-serif, system-ui, sans-serif" font-weight="600" font-size="2.4" letter-spacing="0.9">
    <tspan fill="#B8C2D1">AUTOMAÇÕES&#160;PARA&#160;</tspan><tspan fill="#25D366">WHATSAPP</tspan>
  </text>
  <text x="6.0" y="45.6" font-family="Inter, ui-sans-serif, system-ui, sans-serif" font-weight="600" font-size="2.4" letter-spacing="0.9">
    <tspan fill="#B8C2D1">E&#160;</tspan><tspan fill="#3FA9FF">INTELIGÊNCIA&#160;ARTIFICIAL</tspan>
  </text>

  <!-- Vertical separator -->
  <line x1="51.5" y1="7" x2="51.5" y2="49" stroke="url(#bt-sep)" stroke-width="0.35"/>

  <!-- Feature grid -->
  <g transform="translate(54.5 9.5) scale(0.5000)"><g stroke="url(#bt-icon-stroke)" stroke-width="0.7" fill="none" stroke-linejoin="round" stroke-linecap="round"><path d="M1.2 1.4 H6.6 a1 1 0 0 1 1 1 V5 a1 1 0 0 1 -1 1 H4.6 L3.2 7.6 V6 H1.2 a1 1 0 0 1 -1 -1 V2.4 a1 1 0 0 1 1 -1 z"/><g fill="url(#bt-icon-stroke)" stroke="none"><circle cx="2.5" cy="3.7" r="0.35"/><circle cx="3.9" cy="3.7" r="0.35"/><circle cx="5.3" cy="3.7" r="0.35"/></g><g transform="translate(7.7 7.7)" stroke-width="0.6"><circle r="1.35" fill="#0A1628"/><circle r="1.35"/><circle r="0.45"/><path d="M0 -2 V-1.55 M0 2 V1.55 M-2 0 H-1.55 M2 0 H1.55 M-1.41 -1.41 L-1.10 -1.10 M1.41 -1.41 L1.10 -1.10 M-1.41 1.41 L-1.10 1.10 M1.41 1.41 L1.10 1.10"/></g></g></g>
  <text x="61.5" y="12.2" font-family="Inter, ui-sans-serif, system-ui, sans-serif" font-weight="700" font-size="2.1" letter-spacing="0.6" fill="#FFFFFF">AUTOMAÇÕES</text>
  <text x="61.5" y="15.0" font-family="Inter, ui-sans-serif, system-ui, sans-serif" font-weight="500" font-size="2.1" letter-spacing="0.6" fill="#FFFFFF">INTELIGENTES</text>
  <g transform="translate(54.5 20.5) scale(0.5000)"><g stroke="url(#bt-icon-stroke)" stroke-width="0.7" fill="none" stroke-linejoin="round" stroke-linecap="round"><path d="M4.6 1.5 q-1.6 0 -2.1 1.1 q-1.3 0.3 -1.3 1.5 q0 0.6 0.4 1.0 q-0.4 0.4 -0.4 1.0 q0 1.2 1.3 1.5 q0.5 1.1 2.1 1.1 V1.5 z"/><path d="M5.4 1.5 q1.6 0 2.1 1.1 q1.3 0.3 1.3 1.5 q0 0.6 -0.4 1.0 q0.4 0.4 0.4 1.0 q0 1.2 -1.3 1.5 q-0.5 1.1 -2.1 1.1 V1.5 z"/><path d="M5 1.5 V8.7"/><path d="M3.0 4.0 H4.0 M6.0 4.0 H7.0 M3.2 6.2 H4.0 M6.0 6.2 H6.8"/><g fill="url(#bt-icon-stroke)" stroke="none"><circle cx="3.0" cy="4.0" r="0.28"/><circle cx="7.0" cy="4.0" r="0.28"/><circle cx="3.2" cy="6.2" r="0.28"/><circle cx="6.8" cy="6.2" r="0.28"/></g></g></g>
  <text x="61.5" y="23.2" font-family="Inter, ui-sans-serif, system-ui, sans-serif" font-weight="700" font-size="2.1" letter-spacing="0.6" fill="#FFFFFF">INTELIGÊNCIA</text>
  <text x="61.5" y="26.0" font-family="Inter, ui-sans-serif, system-ui, sans-serif" font-weight="500" font-size="2.1" letter-spacing="0.6" fill="#FFFFFF">ARTIFICIAL</text>
  <g transform="translate(54.5 31.5) scale(0.5000)"><g stroke="#25D366" stroke-width="0.7" fill="none" stroke-linejoin="round" stroke-linecap="round"><path d="M5 0.9 a4.1 4.1 0 0 1 3.5 6.2 l0.5 1.9 l-2.0 -0.5 a4.1 4.1 0 1 1 -2.0 -7.6 z"/><path d="M3.6 3.6 q0.15 -0.55 0.75 -0.55 h0.55 q0.28 0 0.32 0.28 l0.15 0.7 q0.04 0.22 -0.12 0.38 l-0.32 0.30 q0.35 0.70 0.95 1.30 q0.60 0.60 1.30 0.95 l0.30 -0.32 q0.16 -0.16 0.38 -0.12 l0.70 0.15 q0.28 0.05 0.28 0.32 v0.55 q0 0.60 -0.55 0.75 q-0.18 0.05 -0.36 0.05 q-1.55 0 -2.75 -1.20 q-1.20 -1.20 -1.20 -2.75 q0 -0.18 0.05 -0.36 z" fill="#25D366" stroke="none"/></g></g>
  <text x="61.5" y="34.2" font-family="Inter, ui-sans-serif, system-ui, sans-serif" font-weight="700" font-size="2.1" letter-spacing="0.6" fill="#FFFFFF">INTEGRAÇÃO</text>
  <text x="61.5" y="37.0" font-family="Inter, ui-sans-serif, system-ui, sans-serif" font-weight="500" font-size="2.1" letter-spacing="0.6" fill="#FFFFFF">COM WHATSAPP</text>
  <g transform="translate(54.5 42.5) scale(0.5000)"><g stroke="url(#bt-icon-stroke)" stroke-width="0.7" fill="none" stroke-linejoin="round" stroke-linecap="round"><path d="M1.0 8.6 H9.2"/><rect x="1.5" y="6.6" width="1.4" height="2.0"/><rect x="3.5" y="5.0" width="1.4" height="3.6"/><rect x="5.5" y="3.4" width="1.4" height="5.2"/><path d="M2.0 5.2 L4.2 3.4 L6.2 4.4 L8.4 1.8"/><path d="M8.4 1.8 L8.4 3.4 M8.4 1.8 L6.9 1.8"/></g></g>
  <text x="61.5" y="45.2" font-family="Inter, ui-sans-serif, system-ui, sans-serif" font-weight="700" font-size="2.1" letter-spacing="0.6" fill="#FFFFFF">MAIS TEMPO,</text>
  <text x="61.5" y="48.0" font-family="Inter, ui-sans-serif, system-ui, sans-serif" font-weight="500" font-size="2.1" letter-spacing="0.6" fill="#FFFFFF">MAIS RESULTADOS</text>

  <g id="guides" display="none">
    <rect x="0" y="0" width="96" height="56" fill="none" stroke="#FF00FF" stroke-width="0.2" stroke-dasharray="0.6,0.4"/>
    <rect x="3" y="3" width="90" height="50" fill="none" stroke="#FF0000" stroke-width="0.25" stroke-dasharray="1,0.5"/>
    <rect x="6" y="6" width="84" height="44" fill="none" stroke="#00FF00" stroke-width="0.25" stroke-dasharray="0.5,0.5"/>
  </g>
</svg>
